<?xml version="1.0" encoding="UTF-8" standalone="no"?>
<!-- Created with Inkscape (http://www.inkscape.org/) -->

<svg
   version="1.1"
   id="svg1"
   width="163.84"
   height="200"
   viewBox="0 0 163.84 220"
   sodipodi:docname="logo-cloudberry-with-text.svg"
   inkscape:version="1.4.2 (ebf0e940d0, 2025-05-08)"
   inkscape:export-filename="logo-cloudberry.png"
   inkscape:export-xdpi="96"
   inkscape:export-ydpi="96"
   xmlns:inkscape="http://www.inkscape.org/namespaces/inkscape"
   xmlns:sodipodi="http://sodipodi.sourceforge.net/DTD/sodipodi-0.dtd"
   xmlns="http://www.w3.org/2000/svg"
   xmlns:svg="http://www.w3.org/2000/svg">
  <defs
     id="defs1" />
  <sodipodi:namedview
     id="namedview1"
     pagecolor="#ffffff"
     bordercolor="#000000"
     borderopacity="0.25"
     inkscape:showpageshadow="2"
     inkscape:pageopacity="0.0"
     inkscape:pagecheckerboard="0"
     inkscape:deskcolor="#d1d1d1"
     inkscape:zoom="2.3755646"
     inkscape:cx="84.400988"
     inkscape:cy="136.38863"
     inkscape:window-width="1920"
     inkscape:window-height="1047"
     inkscape:window-x="0"
     inkscape:window-y="0"
     inkscape:window-maximized="0"
     inkscape:current-layer="svg1">
    <inkscape:page
       x="0"
       y="0"
       width="163.84"
       height="220"
       id="page2"
       margin="0"
       bleed="0" />
  </sodipodi:namedview>
  <g
     inkscape:groupmode="layer"
     inkscape:label="Image"
     id="g1">
    <path
       style="fill:#000000;stroke-width:1.2029"
       d="M 75.001558,155.88652 C 23.260142,150.85367 -7.6705974,95.15637 15.570507,48.868419 43.111742,-5.9838649 120.89173,-6.2125869 148.21306,48.478367 174.18569,100.46951 132.59395,161.48849 75.001558,155.88652 Z m 16.416216,-5.20439 C 146.02952,143.41494 170.44616,77.345197 133.87797,35.78775 98.575694,-4.3310679 32.488492,9.3885862 16.054444,60.247827 0.27666781,109.07605 40.585971,157.44632 91.417774,150.68213 Z M 68.614712,135.28547 c -3.238266,-1.40724 -1.962549,-5.04082 1.622379,-4.62097 5.71436,0.66925 9.418523,-8.12541 9.44333,-22.42096 0.0083,-4.78054 -0.171705,-5.06836 -1.713048,-2.73924 -5.720053,8.64359 -20.220322,13.91229 -20.220322,7.3471 0,-1.33564 1.26246,-2.02163 4.003748,-2.17551 3.914831,-0.21976 11.393364,-4.83849 11.393364,-7.03654 0,-1.18426 -2.925172,-0.94005 -5.237231,0.43723 -17.883356,10.65306 -39.471922,-9.481402 -30.140416,-28.110294 1.176705,-2.34911 1.176705,-2.34911 0.371627,-3.656815 -6.444943,-10.468637 0.686939,-25.835574 12.891665,-27.77743 2.842576,-0.452272 3.004356,-0.534749 4.06076,-2.07018 2.052231,-2.982814 6.075333,-5.474025 10.223873,-6.330892 1.974091,-0.407743 2.460842,-0.682413 3.247525,-1.832558 5.494972,-8.033745 21.413471,-8.161257 27.013535,-0.216384 0.980257,1.390702 1.416058,1.666228 3.203102,2.02512 4.072877,0.817947 9.369707,4.257462 10.868087,7.057207 0.40505,0.756838 0.97379,0.99693 3.18719,1.345453 12.40934,1.953991 19.27932,16.285863 13.17916,27.493863 -0.99567,1.829393 -0.99567,1.829393 -0.14781,3.020113 11.98111,16.825914 -12.58425,40.226337 -30.202787,28.770517 -1.992291,-1.29541 -4.348071,-1.47908 -4.715109,-0.36759 -0.592898,1.79544 7.173294,6.86956 11.110746,7.2593 3.27198,0.32387 3.64503,0.46093 4.12566,1.5158 3.23372,7.09725 -12.697935,2.76442 -18.878155,-5.13417 -2.710757,-3.46446 -2.658028,-3.50786 -2.830597,2.3297 -0.52591,17.79031 -7.668077,29.4482 -15.860276,25.88813 z m -6.433405,-33.80637 1.432205,-0.49583 -1.682215,-0.50062 c -9.9253,-2.953748 -16.424322,-11.108027 -17.142881,-21.509055 -0.277868,-4.022107 -1.297437,-3.876561 -3.39646,0.484855 -5.68185,11.805922 8.106957,26.4114 20.789351,22.02065 z m 49.948823,-0.27195 c 10.41566,-3.925151 15.23426,-17.109698 8.9642,-24.527697 -1.50336,-1.778603 -1.61939,-1.644499 -1.86561,2.156211 -0.65391,10.09297 -6.5406,17.912325 -15.99822,21.250556 l -2.85031,1.00607 1.68287,0.43902 c 3.66453,0.95602 6.95083,0.8502 10.06707,-0.32416 z M 70.036614,96.192263 c 3.292511,-0.53422 3.313517,-0.563507 1.548227,-2.158339 -6.719442,-6.07061 -9.354332,-17.575828 -6.174261,-26.959836 0.965089,-2.847861 0.789661,-3.004168 -3.353286,-2.987774 -15.230113,0.06027 -17.228088,22.425539 -2.699546,30.218639 3.789578,2.03273 6.658065,2.539686 10.678866,1.88731 z M 102.0857,95.598107 c 16.16547,-5.233543 16.60397,-30.639911 0.54578,-31.62276 -4.371671,-0.26757 -4.979507,0.14639 -4.059289,2.764546 3.047069,8.669447 1.119844,18.766675 -4.929795,25.828514 -1.657027,1.93427 -2.297988,2.942019 -1.954843,3.073478 2.648316,1.014593 7.188054,0.995472 10.398147,-0.04383 z M 86.040414,92.615713 c 9.846416,-4.585261 12.26804,-22.879411 4.104828,-31.009873 -8.70641,-8.671482 -21.24694,-0.77317 -21.335636,13.437669 -0.07778,12.462225 8.788118,21.503782 17.230808,17.572204 z M 45.129855,69.774073 c 0.755461,-0.152471 1.363506,-0.762389 2.179663,-2.186377 1.191918,-2.0796 2.615702,-3.743416 4.372831,-5.110036 1.056463,-0.821672 1.056463,-0.821672 0.404078,-2.500091 -0.482505,-1.241362 -0.649902,-2.846087 -0.642853,-6.16258 l 0.0095,-4.484161 -1.683511,0.506662 c -5.109148,1.537627 -9.344295,7.466282 -9.344295,13.080793 0,3.624513 1.724899,7.814918 3.011843,7.31686 0.354734,-0.137286 1.116454,-0.344766 1.692712,-0.46107 z m 77.315565,-1.370569 c 3.28462,-7.415179 -1.49263,-17.283714 -9.16886,-18.940497 -1.24735,-0.269219 -1.24735,-0.269219 -0.96232,1.011576 0.5098,2.290798 0.28582,6.959165 -0.43544,9.075642 -0.68869,2.02093 -0.68869,2.02093 1.48923,4.011422 1.19785,1.094772 2.67726,2.864814 3.28757,3.933429 0.87331,1.529117 1.42035,2.03938 2.5684,2.395756 2.22502,0.690683 2.26479,0.672313 3.22142,-1.487328 z M 70.816959,57.962382 c 2.22485,-2.122148 4.049307,-3.22797 6.753874,-4.093593 4.821984,-1.543322 1.327256,-9.897198 -5.165982,-12.348881 -8.00053,-3.0208 -16.337554,3.289694 -16.319436,12.352573 0.0086,4.327897 0.752848,5.813978 2.686758,5.365174 2.046538,-0.474942 5.000265,-0.39251 7.058361,0.196982 2.628628,0.752905 2.664761,0.742238 4.986425,-1.472255 z m 27.794135,1.2879 c 1.436616,-0.260506 3.616166,-0.332747 5.365996,-0.177851 l 2.9467,0.260843 0.47999,-2.000754 C 110.46534,44.570491 96.597704,35.361419 87.706772,44.252345 c -3.703971,3.703969 -4.703885,9.591743 -1.632776,9.614241 1.470129,0.01082 5.327963,2.255228 7.271417,4.23045 1.054452,1.071689 2.126259,1.868294 2.381797,1.770233 0.255546,-0.09806 1.553294,-0.375705 2.883884,-0.616987 z M 83.911316,41.02484 c 1.219185,-1.289107 2.924846,-2.545931 4.522613,-3.332511 l 2.56521,-1.26285 -1.303059,-1.087844 c -3.840656,-3.206322 -11.548706,-3.20903 -15.291856,-0.0055 l -1.24197,1.062967 2.164641,1.061639 c 2.79303,1.36983 4.44738,2.646185 5.573693,4.300184 1.099043,1.613952 0.694483,1.71288 3.010728,-0.736209 z"
       id="path1" />
  </g>
  <text
     x="50%"
     y="190"
     text-anchor="middle"
     font-family="sans-serif"
     font-size="34"
     font-weight="bold"
     id="text1"
     style="font-style:normal;font-variant:normal;font-weight:600;font-stretch:normal;font-size:35.2px;font-family:'URW Gothic';-inkscape-font-specification:'URW Gothic, Semi-Bold';font-variant-ligatures:normal;font-variant-caps:normal;font-variant-numeric:normal;font-variant-east-asian:normal;text-anchor:middle">ARTIFACT</text>
  <text
     x="50%"
     y="210"
     text-anchor="middle"
     font-family="sans-serif"
     font-size="18"
     id="text2"
     style="font-style:normal;font-variant:normal;font-weight:normal;font-stretch:normal;font-size:17.6px;font-family:Garked;-inkscape-font-specification:'Garked, Normal';font-variant-ligatures:normal;font-variant-caps:normal;font-variant-numeric:normal;font-variant-east-asian:normal;text-anchor:middle"><tspan
       style="font-style:normal;font-variant:normal;font-weight:normal;font-stretch:normal;font-size:17.6px;font-family:Garked;-inkscape-font-specification:'Garked, Normal';font-variant-ligatures:normal;font-variant-caps:normal;font-variant-numeric:normal;font-variant-east-asian:normal"
       id="tspan1">by Filip Andersson</tspan></text>
</svg>
